<svg width="118" height="127" viewBox="0 0 118 127" fill="none" xmlns="http://www.w3.org/2000/svg">
<path d="M54.4 0.999986C49.5 2.49999 46.7 6.29999 46.7 11.4C46.7 13.9 47.4 17 48.4 18.5C49.4 20 50 21.2 49.8 21.3C31.5 30.4 21.5 43.3 23.6 55.4C24.4 60.3 27.9 67.5 31.6 71.9L34.2 75.1L32.6 81.5C31.7 85 31 88.8 31 89.9C31 92.8 33.6 94.9 38.8 96.2L43.5 97.4L38.5 98.8C35.6 99.6 29.2 100.2 23.1 100.1C11.2 100.1 8.99998 100.9 3.59998 107.1L0.0999756 111.2L3.89998 116.9C5.99998 120 8.69998 123.4 9.89998 124.4C11.8 126.2 12.1 126.2 13.8 124.7C14.9 123.7 19.9 122.6 28.5 121.5C43.7 119.6 50 117.9 55.2 114.5L58.9 112L62.5 114.1C67.8 117.3 74.3 119 88.3 121C96.1 122.1 102.1 123.5 103.7 124.6L106.4 126.3L110.4 121.8C112.7 119.3 115.3 115.9 116.2 114.3C117.9 111.3 117.9 111.2 115.1 107.3C110.8 101.4 107 100 95.8 100.2C85.8 100.5 73.8 98.3 77.5 96.9C78.6 96.5 81 95.6 82.8 95C87.8 93.1 88.2 91.3 85.9 83L83.8 75.7L85.9 73.1C90.2 67.6 93.2 61.7 94.3 56.5C95.2 51.9 95.1 50.2 93.6 45.3C90.9 36.7 81.6 28 68.2 21.3C68 21.2 68.5 20.1 69.3 18.8C74.3 10.8 70.1 1.59999 60.9 0.499986C59 0.299986 56.1 0.499986 54.4 0.999986ZM63 8.99999C64.1 10.1 65 11.7 65 12.5C65 14.6 61.4 18 59.2 18C56.2 18 53.8 15.5 53.8 12.5C53.8 7.39999 59.3 5.29999 63 8.99999ZM65.5 26.9C71.8 29.8 81.7 37.6 84.6 42C89.6 49.6 88.4 60.7 82.1 64.4C75.8 68 44.3 68.4 36.7 64.9C31.1 62.3 28.4 52.1 31.6 45.4C35.5 37.1 51.8 25 58.9 25C60.3 25 63.3 25.9 65.5 26.9ZM78.2 76L77.8 79.5H59H40.2L39.8 76L39.5 72.5H59H78.5L78.2 76ZM77.9 86C80.7 87.4 80.6 89.6 77.8 90.3C73.4 91.4 50.3 92.3 44.6 91.6C38.8 90.8 36.6 89 38.9 86.7C41.4 84.2 73.4 83.5 77.9 86ZM65.6 99.5C72.3 104.3 77.4 105.7 92 106.9C102.8 107.8 104.7 108.2 106.2 110.1C107.6 111.7 107.7 112.6 106.9 114.2C105.9 116 105.2 116.1 98.2 115.5C78 113.8 66.3 110.6 61.6 105.5L59.2 102.9L56.6 105.5C53.2 108.9 47 111.6 39.5 112.9C28.7 114.7 13.2 116.2 12.1 115.5C11.5 115.2 11 113.8 11 112.4C11 108.8 15.3 107.4 28 106.7C41.1 105.9 45.1 104.8 52 99.9C55 97.8 58.2 96 59.1 96C59.9 96 62.9 97.6 65.6 99.5Z" fill="black"/>
<path d="M55.8 39.7C55.5 43 55.1 43.5 52.8 43.8C50.3 44.1 50 44.6 50 47.6C50 50.7 50.2 51 53 51C55.8 51 56 51.2 56 55C56 58.8 56.2 59 59 59C61.8 59 62 58.8 62 55.1C62 51.4 62.2 51.1 65.3 50.8C68.1 50.5 68.5 50.1 68.8 47.3C69.1 44.4 68.9 44.1 65.8 43.8C62.8 43.5 62.5 43.2 62.2 39.7C61.9 36.4 61.6 36 59 36C56.4 36 56.1 36.4 55.8 39.7Z" fill="black"/>
</svg>
