<svg width="118" height="126" viewBox="0 0 118 126" fill="none" xmlns="http://www.w3.org/2000/svg">
<path d="M51.3 1.89998C46.5 4.89998 45.3 11.8 48.5 17.9L50 20.8L45.4 23C42.9 24.2 37.6 28.4 33.5 32.4C27.3 38.5 26 40.3 24.5 45.3C22 53.9 23.9 61.4 31.3 71.8C34.3 76 34.4 76.2 33.1 80.8C30 91.7 30.9 94.5 38.2 95.6C40.3 96 42 96.6 42 96.9C42 98.5 32.2 100 22.4 100C10.2 100 7.69998 100.9 3.19998 107.1L0.0999756 111.3L3.99998 117.1C6.19998 120.3 8.99998 123.6 10.1 124.4C12 125.7 12.5 125.7 14.6 124.3C16 123.4 22.8 122 30.3 121C46.4 118.8 50.6 117.7 55.4 114.5L59.2 111.9L62.4 114C68.1 117.5 74.1 119.1 88.3 121C97.8 122.2 102.7 123.3 104 124.5C105.4 125.8 106.3 125.9 107.9 125.1C109.8 124 118 113 118 111.4C118 109.9 112.6 103.7 109.6 101.9C107.1 100.4 104.6 100 96.3 100C86.2 100 76 98.4 76 96.8C76 96.4 77.1 96 78.5 96C82 96 86.7 93.4 87.4 91.2C87.7 90.3 87.1 86.4 86 82.6L84.1 75.8L88 70.1C97.7 55.8 97.1 44.4 85.9 33.1C81.7 28.9 73.4 23 69.8 21.7C68.3 21.2 68.4 20.8 70.2 17.1C72.8 11.9 72 6.79998 68 2.79998C65.6 0.399984 64.4 -1.63676e-05 59.8 -1.63676e-05C56.3 -1.63676e-05 53.4 0.699984 51.3 1.89998ZM62.4 8.59998C64.3 10.4 64.4 11.4 63 14.1C61 17.8 55 15.9 55 11.5C55 7.29998 59.4 5.59998 62.4 8.59998ZM62.2 39.2C61.9 42.9 61.9 43 65.4 43C68.8 43 69 43.2 69 46.4C69 49.6 68.7 49.9 65.8 50.2C62.7 50.5 62.5 50.8 62.5 54.3C62.5 57.8 62.3 58 59.3 58C56.1 58 56 57.8 56 54C56 50.3 55.8 50 53.1 50C50.7 50 50.2 49.5 49.8 47C49.3 43.4 49.5 43 53.2 43C55.8 43 56 42.7 56 38.9C56 35 56.1 34.9 59.3 35.2C62.4 35.5 62.5 35.7 62.2 39.2ZM76.7 69.6C77 70.5 76.7 71.6 75.9 72.1C74.3 73.2 42.5 72.9 41.5 71.8C41.1 71.4 41 70.4 41.3 69.5C42.3 67.2 75.8 67.2 76.7 69.6ZM75.4 79.6C77.5 80.4 77.4 82.6 75.3 83.5C74.3 83.9 67.8 84.4 60.9 84.7C45.2 85.4 37.1 83.3 42.8 80.1C44.6 79 72.8 78.6 75.4 79.6Z" fill="black"/>
</svg>
