<svg width="80" height="107" viewBox="0 0 80 107" fill="none" xmlns="http://www.w3.org/2000/svg">
<path d="M31.8 2.09998C25 5.59998 22.7 12.2 25.4 19.9C26.3 22.3 26.9 24.4 26.8 24.5C26.6 24.6 24.8 25.6 22.8 26.9C16.1 30.9 13.1 41.5 16.4 49.3C17.1 51.1 19.2 53.8 21 55.4C23.6 57.6 24 58.3 22.9 59C17.9 61.8 10.7 68.2 8.10001 72C3.40001 79 1.80001 84.5 1.30001 96.2L0.700012 107H40H79.3L78.7 96.2C78.3 88.9 77.5 83.7 76 79.8C73.5 73.1 66.7 65.1 60.4 61.4C58 60 56 58.6 56 58.3C56 58 57.2 56.9 58.6 55.7C61.7 53.3 64.9 46.7 65 42.6C65 37.3 62.7 32 59 28.6C56.9 26.8 54.7 25.1 54 24.8C52.9 24.5 52.9 23.7 53.8 21C54.5 19.2 55 15.8 55 13.4C55 2.99998 42.1 -3.40002 31.8 2.09998Z" fill="black"/>
</svg>
