<svg width="80" height="107" viewBox="0 0 80 107" fill="none" xmlns="http://www.w3.org/2000/svg">
<path d="M32.7421 3.86422L32.7287 3.87133L32.7153 3.87825C29.7055 5.42743 27.8164 7.58655 26.9213 10.0967C26.0213 12.6211 26.0537 15.7089 27.2805 19.2185C27.7415 20.4494 28.1286 21.6098 28.3914 22.4904C28.5223 22.9286 28.6302 23.3238 28.7006 23.6349C28.7341 23.7826 28.7705 23.9605 28.7913 24.134C28.8007 24.2128 28.8162 24.363 28.809 24.5401C28.8054 24.627 28.7942 24.7861 28.746 24.9765C28.7069 25.1304 28.5874 25.541 28.2142 25.9142L27.9847 26.1437L27.6944 26.2888C27.6946 26.2887 27.5864 26.3461 27.3513 26.4781C27.1342 26.6001 26.8386 26.7689 26.4865 26.9754C25.7812 27.3888 24.8583 27.9475 23.89 28.5769L23.858 28.5977L23.8252 28.6172C21.0181 30.2931 18.8467 33.4553 17.7735 37.2229C16.7033 40.9798 16.7964 45.1039 18.2419 48.5207L18.2534 48.5477L18.264 48.5751C18.5156 49.222 19.0881 50.175 19.8788 51.2134C20.6475 52.2231 21.5291 53.1916 22.3114 53.8897C22.9654 54.4435 23.5216 54.9369 23.9627 55.378C24.387 55.8023 24.8155 56.2853 25.1011 56.8192C25.41 57.3967 25.6559 58.2459 25.2988 59.1715C24.9879 59.9771 24.3592 60.442 23.9738 60.6873L23.9263 60.7175L23.8772 60.745C21.5469 62.05 18.6153 64.2507 15.9228 66.6251C13.2191 69.0092 10.9174 71.4268 9.75547 73.1223C7.49494 76.4901 6.02805 79.422 5.04952 82.8818C4.0612 86.3762 3.5455 90.4982 3.29819 96.2854L3.29764 96.2982L3.29693 96.3109L2.81421 105H40H77.1858L76.7031 96.3109L76.7031 96.3102L76.703 96.3094C76.3058 89.0606 75.5174 84.1167 74.1333 80.5179L74.1297 80.5086L74.1262 80.4992C72.9797 77.4264 70.7984 73.9492 68.1 70.7689C65.4039 67.5914 62.2958 64.8332 59.3891 63.1257C58.1549 62.4057 57.0063 61.6759 56.1497 61.0735C55.7269 60.7763 55.3387 60.4846 55.039 60.2244C54.8946 60.0991 54.7216 59.939 54.5679 59.7586C54.4922 59.6697 54.3815 59.5299 54.28 59.3496C54.1995 59.2065 54 58.8246 54 58.3C54 57.7055 54.2551 57.2668 54.3249 57.1468L54.3253 57.146C54.4361 56.9556 54.5619 56.7911 54.6621 56.6686C54.8671 56.4184 55.1232 56.1543 55.3798 55.9045C55.9023 55.3957 56.5922 54.7868 57.2984 54.1815L57.3363 54.149L57.3757 54.1185C58.5749 53.1901 59.9852 51.2547 61.1271 48.9114C62.2583 46.5901 62.9538 44.2221 63 42.5746C62.9926 37.8323 60.9229 33.0974 57.6714 30.0953C56.6527 29.223 55.618 28.3815 54.7609 27.7268C54.3276 27.3958 53.9528 27.1225 53.656 26.9206C53.4468 26.7782 53.318 26.7002 53.2557 26.6638C52.8229 26.5204 52.3054 26.2665 51.8785 25.7826C51.3505 25.1843 51.1779 24.4846 51.1519 23.8869C51.108 22.8776 51.4772 21.6439 51.9026 20.3675L51.9182 20.3209L51.936 20.2751C52.5173 18.7804 53 15.6466 53 13.4C53 9.11024 50.3521 5.52981 46.382 3.58325C42.4109 1.63618 37.2906 1.43542 32.7421 3.86422Z" fill="#F5F5F5" stroke="black" stroke-width="40"/>
</svg>
